<svg width="82" height="82" viewBox="0 0 82 82" fill="none" xmlns="http://www.w3.org/2000/svg">
<path d="M82 41C82 63.6437 63.6437 82 41 82C18.3563 82 0 63.6437 0 41C0 18.3563 18.3563 0 41 0C63.6437 0 82 18.3563 82 41Z" fill="#F9B341"/>
<path d="M42.2465 20.9639C42.9151 21.1266 43.6017 21.234 44.2476 21.452C45.6479 21.9536 46.8847 22.8282 47.8242 23.9814C48.7638 25.1346 49.3705 26.5225 49.5789 27.9953H43.8311V30.3348H49.657V33.8489H43.8392V36.2014H49.6504V39.7301H43.8327V42.0695H49.5594C49.2877 44.9979 46.6505 48.8439 41.913 49.1107C39.8666 49.2255 37.8515 48.5689 36.2657 47.2704C34.6799 45.9719 33.6386 44.126 33.3474 42.0972H39.0952V39.7577H33.2742V36.2355H39.0871V33.8814H33.2677V30.369H39.0936V28.0132H33.3458C33.4423 27.1649 33.6926 26.3412 34.0844 25.5827C35.4315 22.9797 37.5497 21.4488 40.4602 21.0274C40.5355 21.0109 40.6095 20.9886 40.6814 20.9607L42.2465 20.9639Z" fill="#67307A"/>
<path d="M32.0934 61.0001V58.6883H40.2636V53.7962C36.0906 53.2822 32.7929 51.3039 30.5023 47.7312C29.2136 45.7012 28.5359 43.3434 28.55 40.939H30.8748C30.9968 44.51 32.4464 47.4156 35.3634 49.5273C37.3083 50.9536 39.6984 51.6389 42.1036 51.46C47.866 51.1021 52.0846 46.2654 52.0536 40.9406H54.3085C54.6485 46.2133 50.2673 53.0609 42.6551 53.793V58.6736H50.8302V60.9985L32.0934 61.0001Z" fill="#67307A"/>
</svg>
